<svg version="1.1" id="Layer_1" xmlns="http://www.w3.org/2000/svg" xmlns:xlink="http://www.w3.org/1999/xlink" x="0px" y="0px"
	 width="100%" viewBox="0 0 500 535" enable-background="new 0 0 500 535" xml:space="preserve">
<path fill="#000000" opacity="1.000000" stroke="none" 
	d="
M1.000000,197.000000 
	C1.000000,131.349075 1.000000,66.198135 1.000000,1.023602 
	C167.610687,1.023602 334.221375,1.023602 500.916016,1.023602 
	C500.916016,179.234253 500.916016,357.468567 500.916016,535.851440 
	C334.333435,535.851440 167.666733,535.851440 1.000000,535.851440 
	C1.000000,423.111969 1.000000,310.306000 1.000000,197.000000 
M137.885101,481.640991 
	C148.995193,479.099396 160.147873,476.728912 171.205231,473.975525 
	C187.204269,469.991608 198.776978,456.069122 200.304123,439.300446 
	C202.273010,444.425537 204.427383,449.379608 206.086182,454.494385 
	C209.075058,463.710480 217.022003,468.209167 223.497925,474.387360 
	C235.022110,485.381775 248.920074,489.618286 263.909576,490.794983 
	C273.570068,491.553314 283.443787,490.868774 293.112793,489.822418 
	C300.235565,489.051605 307.785767,487.857178 314.075500,484.711792 
	C325.617981,478.939606 335.574982,470.667450 344.516022,461.154297 
	C351.969269,453.224152 352.230621,444.167572 349.230682,434.941162 
	C345.910126,424.728790 329.455933,418.623138 320.300415,424.583130 
	C314.396515,428.426422 309.797394,434.448425 305.092804,439.907104 
	C300.962891,444.699036 296.630066,449.239014 290.182709,449.870453 
	C283.777130,450.497772 277.254639,450.019257 270.786560,449.878723 
	C268.055847,449.819397 265.262909,449.683960 262.619934,449.064209 
	C253.832108,447.003571 245.589249,427.339172 251.989944,418.025116 
	C256.033997,412.140350 259.108826,405.126190 264.337585,400.608337 
	C278.377594,388.477264 295.815063,384.715637 313.896057,384.113007 
	C321.178741,383.870300 328.196014,377.289581 328.946106,370.889313 
	C330.368286,358.754364 324.317780,352.967468 316.632324,351.236786 
	C309.042175,349.527466 301.044128,349.522308 293.208557,349.034149 
	C281.031494,348.275421 269.745819,345.947052 261.186493,335.936005 
	C258.133209,332.364838 256.855530,329.005310 256.916229,324.467865 
	C257.019806,316.722198 261.547821,312.709198 267.984161,310.035919 
	C270.645050,308.930725 273.316010,307.754547 276.093994,307.051575 
	C279.299988,306.240234 283.248016,304.542358 285.769989,305.678894 
	C290.359070,307.747009 296.843658,307.310333 298.852631,314.098328 
	C299.448425,316.111389 302.213898,317.899780 304.392242,318.932587 
	C307.963287,320.625702 311.802277,321.885895 315.652130,322.815918 
	C318.582977,323.523926 321.777100,323.982910 324.729706,323.598145 
	C332.717102,322.557404 336.727142,316.299408 340.237793,310.104675 
	C343.495514,304.356171 341.769623,296.008942 336.972626,292.474030 
	C331.732330,288.612427 326.739014,284.364960 321.233887,280.934174 
	C318.347168,279.135162 314.220459,279.342865 311.302246,277.574249 
	C301.214844,271.460754 289.769226,270.342957 278.650330,268.084595 
	C273.764923,267.092316 268.692261,267.022125 263.704620,266.533264 
	C281.840271,265.790649 299.887024,264.605225 317.885742,262.909637 
	C326.603973,262.088318 334.498505,258.782745 340.500854,251.988327 
	C341.891968,250.413635 343.130981,248.704559 344.615723,246.836136 
	C350.578094,259.518250 363.428131,267.454071 372.067932,269.103912 
	C381.656891,270.934998 391.854950,269.810394 401.775024,269.526733 
	C404.646423,269.444641 407.843597,268.393921 410.256836,266.816467 
	C420.131073,260.361816 422.383148,248.139343 412.682007,240.215958 
	C410.050323,238.066528 406.339294,236.658936 404.721558,233.954910 
	C399.587158,225.372818 395.394073,216.108459 395.130005,205.959335 
	C394.769928,192.120560 398.206787,179.056656 406.103882,167.472275 
	C409.114258,163.056229 412.488251,158.879013 415.830566,154.700150 
	C423.522034,145.083633 424.258911,136.688126 417.957977,125.745895 
	C410.944336,113.565987 401.179047,106.076439 386.298645,105.845726 
	C376.011810,105.686234 366.114166,107.194427 356.898071,111.199753 
	C347.445007,115.308090 339.982788,121.992172 335.893829,132.084076 
	C330.188293,146.165848 327.848755,160.766861 328.043457,175.822220 
	C328.184662,186.740921 328.780243,197.653290 329.015472,208.571869 
	C329.041046,209.757660 328.341736,211.483871 327.417969,212.059311 
	C325.300201,213.378571 323.741943,217.245743 320.261658,214.271713 
	C315.331848,220.567215 307.837036,218.088028 301.822754,218.534561 
	C292.875336,219.198898 283.715424,216.977707 274.643982,216.002853 
	C266.866730,215.167053 258.764252,215.037064 256.910736,204.703186 
	C255.864853,198.871857 253.477325,193.176987 253.151871,187.339371 
	C251.995667,166.601151 255.305161,146.147308 258.107697,125.682358 
	C258.906586,119.848793 259.601837,114.001030 260.344635,108.159782 
	C260.775024,108.211411 261.205414,108.263046 261.635803,108.314674 
	C261.908905,109.416542 262.182037,110.518402 262.480347,111.721939 
	C263.022827,108.934441 263.263428,106.317055 264.052216,103.876892 
	C268.103363,91.344879 276.061493,80.206627 277.634369,66.814079 
	C278.605804,58.542606 278.438232,50.292118 275.101746,42.358391 
	C270.364685,31.094412 260.852081,25.304031 250.050446,22.273642 
	C243.262405,20.369263 235.648560,20.802999 228.446060,21.119028 
	C216.766052,21.631521 207.135864,28.428177 202.887787,39.410114 
	C199.866394,47.220921 200.708359,55.316898 200.233704,63.202785 
	C199.157944,81.076057 199.069977,99.024696 199.073212,116.942596 
	C199.076553,135.354385 199.703751,153.765579 199.945251,172.178513 
	C199.972137,174.228470 199.616043,176.436554 198.826050,178.313980 
	C196.843857,183.024673 194.124084,187.448502 192.399277,192.239090 
	C188.811676,202.203522 179.433884,203.348480 171.436691,205.785522 
	C161.011368,208.962494 150.210831,211.139038 139.429062,212.843567 
	C130.562805,214.245270 121.491096,214.372070 112.502708,214.941971 
	C111.497253,215.005707 110.215553,214.535828 109.443748,213.870529 
	C101.676514,207.174774 97.220459,202.697174 102.816971,189.762024 
	C104.186073,186.597626 106.163002,182.541229 108.907501,181.389023 
	C113.377319,179.512558 118.690598,179.387299 123.682213,179.080109 
	C129.327103,178.732712 135.011429,179.086029 140.675720,178.980316 
	C149.762573,178.810760 156.836227,173.237991 159.045517,164.669510 
	C161.055069,156.875732 158.320923,148.547104 151.471527,144.269379 
	C146.984848,141.467255 141.920242,138.136505 136.950012,137.844849 
	C123.886238,137.078232 110.732674,137.868134 97.614342,137.953964 
	C96.577980,137.960739 95.056625,137.641937 94.574013,136.926102 
	C90.314178,130.607651 83.997772,125.432281 83.865631,116.794228 
	C83.811951,113.285583 82.413513,109.814514 82.164474,106.288391 
	C81.599792,98.292953 81.656174,90.030083 86.214287,83.254280 
	C88.634834,79.656044 93.415985,77.607994 97.221909,74.991638 
	C100.172813,72.963058 103.165741,72.309685 106.833084,73.861794 
	C111.813614,75.969673 117.380066,76.796440 122.180153,79.200897 
	C128.016586,82.124489 133.462921,85.359703 135.304382,93.054451 
	C136.952621,99.941727 141.282532,106.412720 148.909988,108.178329 
	C154.877762,109.559731 161.278793,110.141708 167.364243,109.626167 
	C172.905472,109.156723 177.582687,105.085388 179.336243,99.927719 
	C183.231613,88.470306 180.855560,76.994926 175.716934,66.579193 
	C172.333618,59.721386 166.892242,53.842033 162.125809,47.716450 
	C158.948471,43.633099 155.953796,38.945114 151.775909,36.210609 
	C145.421448,32.051498 137.824982,29.832731 131.272110,25.924515 
	C120.044304,19.228109 107.844147,19.313995 95.649597,20.166325 
	C88.151436,20.690403 80.215050,21.592407 73.463921,24.567673 
	C63.816704,28.819262 54.579529,34.461227 46.115482,40.779671 
	C40.242573,45.163826 35.662483,51.447170 31.044521,57.307312 
	C23.412491,66.992294 25.579113,79.292465 23.208429,90.365242 
	C22.014332,95.942513 23.403212,102.020317 22.916815,107.812393 
	C21.875414,120.213539 26.876757,130.690048 33.270802,140.517731 
	C36.506760,145.491425 40.992386,149.794083 45.472496,153.769653 
	C48.826279,156.745728 53.074627,158.713745 56.077129,160.598557 
	C50.434429,167.803574 44.251118,174.787582 39.135628,182.481567 
	C33.793278,190.516754 33.244171,200.052612 32.971493,209.490952 
	C32.752003,217.088211 35.011211,224.121994 36.735600,231.406082 
	C39.234100,241.960159 45.806900,249.267609 52.975052,256.417328 
	C60.202541,263.626221 69.763283,264.877441 79.237091,265.947113 
	C87.368874,266.865234 95.552559,267.320465 103.711128,268.006073 
	C107.129280,268.293335 110.579269,269.135254 113.949821,268.877045 
	C123.377899,268.154755 132.774139,267.009125 142.178879,265.992981 
	C147.991394,265.364990 153.811172,264.772858 159.598877,263.959564 
	C162.615051,263.535706 165.556091,262.160461 168.552933,262.085236 
	C184.382492,261.687805 198.833160,256.413330 213.328140,250.001511 
	C225.066971,264.088593 242.435272,262.733704 255.202972,265.072662 
	C250.363876,266.253235 242.742966,268.117737 235.119431,269.971375 
	C216.606766,274.472626 207.642746,288.298370 203.345215,305.053406 
	C201.062927,313.951477 201.399429,323.850769 202.286713,333.132446 
	C203.053604,341.154816 205.750015,349.091339 211.765900,355.371826 
	C216.531052,360.346588 220.844727,365.753754 225.264603,370.860016 
	C209.410355,380.726898 201.905792,396.070007 199.842377,414.751129 
	C198.138535,409.244446 196.614822,404.215302 195.026337,399.206696 
	C191.067734,386.724976 182.381180,377.804596 172.484619,369.953888 
	C163.551971,362.867859 154.133301,357.327850 141.976700,356.735779 
	C130.195953,356.162018 118.459259,353.931885 106.814995,351.814514 
	C103.746887,351.256592 100.048073,349.070374 98.464241,346.504944 
	C95.140625,341.121460 93.628632,335.122192 96.850395,328.635986 
	C98.349464,325.617950 103.812370,318.656342 106.709274,317.988525 
	C114.513176,316.189667 122.448135,315.963959 129.722626,319.201935 
	C134.876053,321.495850 140.822647,324.531891 143.665527,328.990051 
	C150.499283,339.706604 159.307083,344.229980 171.724213,343.055511 
	C181.787140,342.103638 190.630371,332.090363 187.046585,321.887909 
	C183.288681,311.189789 176.224335,302.848267 168.356827,295.059113 
	C166.031113,292.756561 163.538239,290.609558 161.010040,288.527191 
	C152.911957,281.857178 143.922867,276.826355 133.293610,276.092865 
	C122.404533,275.341461 111.464790,275.100159 100.546036,275.070007 
	C90.903854,275.043365 81.588531,277.496002 72.990685,281.628265 
	C55.130878,290.211975 43.627819,304.376831 37.883976,323.515900 
	C37.883976,318.505463 37.883976,313.495026 37.883976,308.484589 
	C36.992035,314.784088 37.372444,321.104706 36.913559,327.363739 
	C35.930691,340.769867 34.624672,353.989899 38.841072,367.291748 
	C43.867088,383.147766 59.705116,399.242889 78.944092,399.024384 
	C90.608437,398.891937 102.275528,399.012878 113.941330,398.989685 
	C116.435524,398.984741 119.029251,398.373016 121.403183,398.870605 
	C126.705681,399.982086 131.884720,401.670166 137.139221,403.025787 
	C144.944534,405.039520 151.948151,408.362091 153.443024,417.131836 
	C154.184921,421.484161 153.911133,426.503479 152.346436,430.543060 
	C151.584717,432.509583 146.625504,432.592102 143.880112,434.099030 
	C136.884140,437.939026 129.638626,435.641602 122.699127,434.761108 
	C116.687225,433.998291 110.292953,433.681885 105.084587,429.113068 
	C98.509979,423.345673 91.304924,418.299561 84.405312,412.899506 
	C72.728622,403.760712 60.281971,406.233093 48.163929,411.225769 
	C44.808239,412.608337 41.309223,416.602783 40.278755,420.105743 
	C37.368622,429.998413 38.800449,439.313110 47.122181,446.781097 
	C49.849815,449.228882 51.626022,452.714233 53.968678,455.619202 
	C57.062923,459.456116 59.908390,463.604950 63.524113,466.889526 
	C75.091568,477.397400 89.589249,480.765411 104.539940,481.846588 
	C115.315475,482.625824 126.193802,481.983704 137.885101,481.640991 
M354.955994,79.615921 
	C358.586487,93.092705 368.526306,98.954422 380.782379,99.918938 
	C386.741425,100.387894 392.774261,100.179276 398.762604,99.966110 
	C416.134827,99.347694 434.071625,88.370445 433.030182,65.999954 
	C432.821289,61.512726 433.234009,56.990768 432.914948,52.516575 
	C432.713837,49.696239 432.070221,46.770184 430.960419,44.175945 
	C426.436676,33.601673 417.505402,28.203875 407.061279,25.059977 
	C402.157867,23.583948 397.011993,22.364723 391.932220,22.169699 
	C386.288422,21.953024 379.902557,21.557123 375.050964,23.827452 
	C359.771393,30.977594 350.808960,42.964146 352.061890,60.718964 
	C352.493042,66.828362 353.641174,72.887161 354.955994,79.615921 
M380.735962,478.998718 
	C387.031921,478.997650 393.929565,480.659729 399.497284,478.645569 
	C410.719360,474.585907 419.832825,467.465332 423.690704,454.935394 
	C427.742950,441.774048 427.336548,429.858948 418.033844,418.907867 
	C410.923950,410.538147 403.349823,403.625488 391.168030,405.985931 
	C388.936157,406.418365 386.619415,407.140015 384.426605,406.912231 
	C377.547455,406.197662 371.469757,408.570099 366.059326,412.110870 
	C357.576416,417.662231 351.747589,424.830872 351.796417,436.082367 
	C351.834076,444.761200 354.049988,452.739105 356.404816,460.826233 
	C356.822083,462.259308 357.170898,463.931244 358.127899,464.952698 
	C364.189758,471.422668 370.957489,476.892242 380.735962,478.998718 
M417.977966,115.874763 
	C416.755463,114.823189 415.532990,113.771614 414.310486,112.720039 
	C413.973022,113.276848 413.635529,113.833649 413.298065,114.390450 
	C414.882202,115.165955 416.466309,115.941460 417.977966,115.874763 
M421.995819,122.393867 
	C421.450043,121.226295 420.904236,120.058716 420.358459,118.891144 
	C420.046265,119.029106 419.734070,119.167068 419.421875,119.305031 
	C420.045746,120.996910 420.669647,122.688789 421.293549,124.380661 
	C421.528412,123.985603 421.763306,123.590546 421.995819,122.393867 
M411.807587,112.174240 
	C412.164276,112.102913 412.520966,112.031586 412.877655,111.960258 
	C412.802765,111.717079 412.685760,111.257584 412.659210,111.262741 
	C412.163879,111.359222 411.679321,111.510910 411.807587,112.174240 
z"/>
<path fill="#FFFFFF" opacity="1.000000" stroke="none" 
	d="
M137.455688,481.808289 
	C126.193802,481.983704 115.315475,482.625824 104.539940,481.846588 
	C89.589249,480.765411 75.091568,477.397400 63.524113,466.889526 
	C59.908390,463.604950 57.062923,459.456116 53.968678,455.619202 
	C51.626022,452.714233 49.849815,449.228882 47.122181,446.781097 
	C38.800449,439.313110 37.368622,429.998413 40.278755,420.105743 
	C41.309223,416.602783 44.808239,412.608337 48.163929,411.225769 
	C60.281971,406.233093 72.728622,403.760712 84.405312,412.899506 
	C91.304924,418.299561 98.509979,423.345673 105.084587,429.113068 
	C110.292953,433.681885 116.687225,433.998291 122.699127,434.761108 
	C129.638626,435.641602 136.884140,437.939026 143.880112,434.099030 
	C146.625504,432.592102 151.584717,432.509583 152.346436,430.543060 
	C153.911133,426.503479 154.184921,421.484161 153.443024,417.131836 
	C151.948151,408.362091 144.944534,405.039520 137.139221,403.025787 
	C131.884720,401.670166 126.705681,399.982086 121.403183,398.870605 
	C119.029251,398.373016 116.435524,398.984741 113.941330,398.989685 
	C102.275528,399.012878 90.608437,398.891937 78.944092,399.024384 
	C59.705116,399.242889 43.867088,383.147766 38.841072,367.291748 
	C34.624672,353.989899 35.930691,340.769867 36.913559,327.363739 
	C37.372444,321.104706 36.992035,314.784088 37.883976,308.484589 
	C37.883976,313.495026 37.883976,318.505463 37.883976,323.515900 
	C43.627819,304.376831 55.130878,290.211975 72.990685,281.628265 
	C81.588531,277.496002 90.903854,275.043365 100.546036,275.070007 
	C111.464790,275.100159 122.404533,275.341461 133.293610,276.092865 
	C143.922867,276.826355 152.911957,281.857178 161.010040,288.527191 
	C163.538239,290.609558 166.031113,292.756561 168.356827,295.059113 
	C176.224335,302.848267 183.288681,311.189789 187.046585,321.887909 
	C190.630371,332.090363 181.787140,342.103638 171.724213,343.055511 
	C159.307083,344.229980 150.499283,339.706604 143.665527,328.990051 
	C140.822647,324.531891 134.876053,321.495850 129.722626,319.201935 
	C122.448135,315.963959 114.513176,316.189667 106.709274,317.988525 
	C103.812370,318.656342 98.349464,325.617950 96.850395,328.635986 
	C93.628632,335.122192 95.140625,341.121460 98.464241,346.504944 
	C100.048073,349.070374 103.746887,351.256592 106.814995,351.814514 
	C118.459259,353.931885 130.195953,356.162018 141.976700,356.735779 
	C154.133301,357.327850 163.551971,362.867859 172.484619,369.953888 
	C182.381180,377.804596 191.067734,386.724976 195.026337,399.206696 
	C196.614822,404.215302 198.138535,409.244446 199.842377,414.751129 
	C201.905792,396.070007 209.410355,380.726898 225.264603,370.860016 
	C220.844727,365.753754 216.531052,360.346588 211.765900,355.371826 
	C205.750015,349.091339 203.053604,341.154816 202.286713,333.132446 
	C201.399429,323.850769 201.062927,313.951477 203.345215,305.053406 
	C207.642746,288.298370 216.606766,274.472626 235.119431,269.971375 
	C242.742966,268.117737 250.363876,266.253235 255.202972,265.072662 
	C242.435272,262.733704 225.066971,264.088593 213.328140,250.001511 
	C198.833160,256.413330 184.382492,261.687805 168.552933,262.085236 
	C165.556091,262.160461 162.615051,263.535706 159.598877,263.959564 
	C153.811172,264.772858 147.991394,265.364990 142.178879,265.992981 
	C132.774139,267.009125 123.377899,268.154755 113.949821,268.877045 
	C110.579269,269.135254 107.129280,268.293335 103.711128,268.006073 
	C95.552559,267.320465 87.368874,266.865234 79.237091,265.947113 
	C69.763283,264.877441 60.202541,263.626221 52.975052,256.417328 
	C45.806900,249.267609 39.234100,241.960159 36.735600,231.406082 
	C35.011211,224.121994 32.752003,217.088211 32.971493,209.490952 
	C33.244171,200.052612 33.793278,190.516754 39.135628,182.481567 
	C44.251118,174.787582 50.434429,167.803574 56.077129,160.598557 
	C53.074627,158.713745 48.826279,156.745728 45.472496,153.769653 
	C40.992386,149.794083 36.506760,145.491425 33.270802,140.517731 
	C26.876757,130.690048 21.875414,120.213539 22.916815,107.812393 
	C23.403212,102.020317 22.014332,95.942513 23.208429,90.365242 
	C25.579113,79.292465 23.412491,66.992294 31.044521,57.307312 
	C35.662483,51.447170 40.242573,45.163826 46.115482,40.779671 
	C54.579529,34.461227 63.816704,28.819262 73.463921,24.567673 
	C80.215050,21.592407 88.151436,20.690403 95.649597,20.166325 
	C107.844147,19.313995 120.044304,19.228109 131.272110,25.924515 
	C137.824982,29.832731 145.421448,32.051498 151.775909,36.210609 
	C155.953796,38.945114 158.948471,43.633099 162.125809,47.716450 
	C166.892242,53.842033 172.333618,59.721386 175.716934,66.579193 
	C180.855560,76.994926 183.231613,88.470306 179.336243,99.927719 
	C177.582687,105.085388 172.905472,109.156723 167.364243,109.626167 
	C161.278793,110.141708 154.877762,109.559731 148.909988,108.178329 
	C141.282532,106.412720 136.952621,99.941727 135.304382,93.054451 
	C133.462921,85.359703 128.016586,82.124489 122.180153,79.200897 
	C117.380066,76.796440 111.813614,75.969673 106.833084,73.861794 
	C103.165741,72.309685 100.172813,72.963058 97.221909,74.991638 
	C93.415985,77.607994 88.634834,79.656044 86.214287,83.254280 
	C81.656174,90.030083 81.599792,98.292953 82.164474,106.288391 
	C82.413513,109.814514 83.811951,113.285583 83.865631,116.794228 
	C83.997772,125.432281 90.314178,130.607651 94.574013,136.926102 
	C95.056625,137.641937 96.577980,137.960739 97.614342,137.953964 
	C110.732674,137.868134 123.886238,137.078232 136.950012,137.844849 
	C141.920242,138.136505 146.984848,141.467255 151.471527,144.269379 
	C158.320923,148.547104 161.055069,156.875732 159.045517,164.669510 
	C156.836227,173.237991 149.762573,178.810760 140.675720,178.980316 
	C135.011429,179.086029 129.327103,178.732712 123.682213,179.080109 
	C118.690598,179.387299 113.377319,179.512558 108.907501,181.389023 
	C106.163002,182.541229 104.186073,186.597626 102.816971,189.762024 
	C97.220459,202.697174 101.676514,207.174774 109.443748,213.870529 
	C110.215553,214.535828 111.497253,215.005707 112.502708,214.941971 
	C121.491096,214.372070 130.562805,214.245270 139.429062,212.843567 
	C150.210831,211.139038 161.011368,208.962494 171.436691,205.785522 
	C179.433884,203.348480 188.811676,202.203522 192.399277,192.239090 
	C194.124084,187.448502 196.843857,183.024673 198.826050,178.313980 
	C199.616043,176.436554 199.972137,174.228470 199.945251,172.178513 
	C199.703751,153.765579 199.076553,135.354385 199.073212,116.942596 
	C199.069977,99.024696 199.157944,81.076057 200.233704,63.202785 
	C200.708359,55.316898 199.866394,47.220921 202.887787,39.410114 
	C207.135864,28.428177 216.766052,21.631521 228.446060,21.119028 
	C235.648560,20.802999 243.262405,20.369263 250.050446,22.273642 
	C260.852081,25.304031 270.364685,31.094412 275.101746,42.358391 
	C278.438232,50.292118 278.605804,58.542606 277.634369,66.814079 
	C276.061493,80.206627 268.103363,91.344879 264.052216,103.876892 
	C263.263428,106.317055 263.022827,108.934441 262.480347,111.721939 
	C262.182037,110.518402 261.908905,109.416542 261.635803,108.314674 
	C261.205414,108.263046 260.775024,108.211411 260.344635,108.159782 
	C259.601837,114.001030 258.906586,119.848793 258.107697,125.682358 
	C255.305161,146.147308 251.995667,166.601151 253.151871,187.339371 
	C253.477325,193.176987 255.864853,198.871857 256.910736,204.703186 
	C258.764252,215.037064 266.866730,215.167053 274.643982,216.002853 
	C283.715424,216.977707 292.875336,219.198898 301.822754,218.534561 
	C307.837036,218.088028 315.331848,220.567215 320.261658,214.271713 
	C323.741943,217.245743 325.300201,213.378571 327.417969,212.059311 
	C328.341736,211.483871 329.041046,209.757660 329.015472,208.571869 
	C328.780243,197.653290 328.184662,186.740921 328.043457,175.822220 
	C327.848755,160.766861 330.188293,146.165848 335.893829,132.084076 
	C339.982788,121.992172 347.445007,115.308090 356.898071,111.199753 
	C366.114166,107.194427 376.011810,105.686234 386.298645,105.845726 
	C401.179047,106.076439 410.944336,113.565987 417.957977,125.745895 
	C424.258911,136.688126 423.522034,145.083633 415.830566,154.700150 
	C412.488251,158.879013 409.114258,163.056229 406.103882,167.472275 
	C398.206787,179.056656 394.769928,192.120560 395.130005,205.959335 
	C395.394073,216.108459 399.587158,225.372818 404.721558,233.954910 
	C406.339294,236.658936 410.050323,238.066528 412.682007,240.215958 
	C422.383148,248.139343 420.131073,260.361816 410.256836,266.816467 
	C407.843597,268.393921 404.646423,269.444641 401.775024,269.526733 
	C391.854950,269.810394 381.656891,270.934998 372.067932,269.103912 
	C363.428131,267.454071 350.578094,259.518250 344.615723,246.836136 
	C343.130981,248.704559 341.891968,250.413635 340.500854,251.988327 
	C334.498505,258.782745 326.603973,262.088318 317.885742,262.909637 
	C299.887024,264.605225 281.840271,265.790649 263.704620,266.533264 
	C268.692261,267.022125 273.764923,267.092316 278.650330,268.084595 
	C289.769226,270.342957 301.214844,271.460754 311.302246,277.574249 
	C314.220459,279.342865 318.347168,279.135162 321.233887,280.934174 
	C326.739014,284.364960 331.732330,288.612427 336.972626,292.474030 
	C341.769623,296.008942 343.495514,304.356171 340.237793,310.104675 
	C336.727142,316.299408 332.717102,322.557404 324.729706,323.598145 
	C321.777100,323.982910 318.582977,323.523926 315.652130,322.815918 
	C311.802277,321.885895 307.963287,320.625702 304.392242,318.932587 
	C302.213898,317.899780 299.448425,316.111389 298.852631,314.098328 
	C296.843658,307.310333 290.359070,307.747009 285.769989,305.678894 
	C283.248016,304.542358 279.299988,306.240234 276.093994,307.051575 
	C273.316010,307.754547 270.645050,308.930725 267.984161,310.035919 
	C261.547821,312.709198 257.019806,316.722198 256.916229,324.467865 
	C256.855530,329.005310 258.133209,332.364838 261.186493,335.936005 
	C269.745819,345.947052 281.031494,348.275421 293.208557,349.034149 
	C301.044128,349.522308 309.042175,349.527466 316.632324,351.236786 
	C324.317780,352.967468 330.368286,358.754364 328.946106,370.889313 
	C328.196014,377.289581 321.178741,383.870300 313.896057,384.113007 
	C295.815063,384.715637 278.377594,388.477264 264.337585,400.608337 
	C259.108826,405.126190 256.033997,412.140350 251.989944,418.025116 
	C245.589249,427.339172 253.832108,447.003571 262.619934,449.064209 
	C265.262909,449.683960 268.055847,449.819397 270.786560,449.878723 
	C277.254639,450.019257 283.777130,450.497772 290.182709,449.870453 
	C296.630066,449.239014 300.962891,444.699036 305.092804,439.907104 
	C309.797394,434.448425 314.396515,428.426422 320.300415,424.583130 
	C329.455933,418.623138 345.910126,424.728790 349.230682,434.941162 
	C352.230621,444.167572 351.969269,453.224152 344.516022,461.154297 
	C335.574982,470.667450 325.617981,478.939606 314.075500,484.711792 
	C307.785767,487.857178 300.235565,489.051605 293.112793,489.822418 
	C283.443787,490.868774 273.570068,491.553314 263.909576,490.794983 
	C248.920074,489.618286 235.022110,485.381775 223.497925,474.387360 
	C217.022003,468.209167 209.075058,463.710480 206.086182,454.494385 
	C204.427383,449.379608 202.273010,444.425537 200.304123,439.300446 
	C198.776978,456.069122 187.204269,469.991608 171.205231,473.975525 
	C160.147873,476.728912 148.995193,479.099396 137.455688,481.808289 
z"/>
<path fill="#FFFFFF" opacity="1.000000" stroke="none" 
	d="
M354.708862,79.292496 
	C353.641174,72.887161 352.493042,66.828362 352.061890,60.718964 
	C350.808960,42.964146 359.771393,30.977594 375.050964,23.827452 
	C379.902557,21.557123 386.288422,21.953024 391.932220,22.169699 
	C397.011993,22.364723 402.157867,23.583948 407.061279,25.059977 
	C417.505402,28.203875 426.436676,33.601673 430.960419,44.175945 
	C432.070221,46.770184 432.713837,49.696239 432.914948,52.516575 
	C433.234009,56.990768 432.821289,61.512726 433.030182,65.999954 
	C434.071625,88.370445 416.134827,99.347694 398.762604,99.966110 
	C392.774261,100.179276 386.741425,100.387894 380.782379,99.918938 
	C368.526306,98.954422 358.586487,93.092705 354.708862,79.292496 
z"/>
<path fill="#FFFFFF" opacity="1.000000" stroke="none" 
	d="
M380.305084,478.986755 
	C370.957489,476.892242 364.189758,471.422668 358.127899,464.952698 
	C357.170898,463.931244 356.822083,462.259308 356.404816,460.826233 
	C354.049988,452.739105 351.834076,444.761200 351.796417,436.082367 
	C351.747589,424.830872 357.576416,417.662231 366.059326,412.110870 
	C371.469757,408.570099 377.547455,406.197662 384.426605,406.912231 
	C386.619415,407.140015 388.936157,406.418365 391.168030,405.985931 
	C403.349823,403.625488 410.923950,410.538147 418.033844,418.907867 
	C427.336548,429.858948 427.742950,441.774048 423.690704,454.935394 
	C419.832825,467.465332 410.719360,474.585907 399.497284,478.645569 
	C393.929565,480.659729 387.031921,478.997650 380.305084,478.986755 
z"/>
<path fill="#FFFFFF" opacity="1.000000" stroke="none" 
	d="
M418.014221,116.295868 
	C416.466309,115.941460 414.882202,115.165955 413.298065,114.390450 
	C413.635529,113.833649 413.973022,113.276848 414.310486,112.720039 
	C415.532990,113.771614 416.755463,114.823189 418.014221,116.295868 
z"/>
<path fill="#FFFFFF" opacity="1.000000" stroke="none" 
	d="
M421.997009,122.794678 
	C421.763306,123.590546 421.528412,123.985603 421.293518,124.380661 
	C420.669647,122.688789 420.045746,120.996910 419.421875,119.305031 
	C419.734070,119.167068 420.046265,119.029106 420.358459,118.891144 
	C420.904236,120.058716 421.450043,121.226295 421.997009,122.794678 
z"/>
<path fill="#FFFFFF" opacity="1.000000" stroke="none" 
	d="
M411.500031,111.912628 
	C411.679321,111.510910 412.163879,111.359222 412.659210,111.262741 
	C412.685760,111.257584 412.802765,111.717079 412.877655,111.960258 
	C412.520966,112.031586 412.164276,112.102913 411.500031,111.912628 
z"/>
</svg>