<svg width="86" height="91" viewBox="0 0 86 91" fill="none" xmlns="http://www.w3.org/2000/svg">
<path d="M43.6584 46.2146L36.3484 26.3267C36.2387 26.0283 36.0452 25.7716 35.7933 25.5906C35.5414 25.4096 35.2431 25.3127 34.9375 25.3127C34.6319 25.3127 34.3336 25.4096 34.0817 25.5906C33.8298 25.7716 33.6363 26.0283 33.5266 26.3267L26.2166 46.2146C26.1406 46.4213 26.0241 46.6089 25.8745 46.7655C25.7249 46.922 25.5456 47.044 25.3482 47.1234L6.34418 54.7734C6.05899 54.8882 5.81374 55.0908 5.64076 55.3544C5.46778 55.618 5.37518 55.9302 5.37518 56.25C5.37518 56.5698 5.46778 56.882 5.64076 57.1456C5.81374 57.4092 6.05899 57.6118 6.34418 57.7266L25.3482 65.3766C25.5456 65.456 25.7249 65.578 25.8745 65.7345C26.0241 65.891 26.1406 66.0787 26.2166 66.2853L33.5266 86.1732C33.6363 86.4717 33.8298 86.7283 34.0817 86.9094C34.3336 87.0904 34.6319 87.1873 34.9375 87.1873C35.2431 87.1873 35.5414 87.0904 35.7933 86.9094C36.0452 86.7283 36.2387 86.4717 36.3484 86.1732L43.6584 66.2853C43.7344 66.0787 43.8509 65.891 44.0005 65.7345C44.1501 65.578 44.3294 65.456 44.5268 65.3766L63.5308 57.7266C63.816 57.6118 64.0613 57.4092 64.2342 57.1456C64.4072 56.882 64.4998 56.5698 64.4998 56.25C64.4998 55.9302 64.4072 55.618 64.2342 55.3544C64.0613 55.0908 63.816 54.8882 63.5308 54.7734L44.5268 47.1234C44.3294 47.044 44.1501 46.922 44.0005 46.7655C43.8509 46.6089 43.7344 46.4213 43.6584 46.2146Z" stroke="#887A89" stroke-width="7" stroke-linecap="round" stroke-linejoin="round"/>
<path d="M18.1406 11.9531L14.7812 2.8125L11.4219 11.9531L2.6875 15.4688L11.4219 18.9844L14.7812 28.125L18.1406 18.9844L26.875 15.4688L18.1406 11.9531Z" stroke="#887A89" stroke-width="5" stroke-linecap="round" stroke-linejoin="round"/>
<path d="M71.6672 20.6244L67.1875 8.4375L62.7078 20.6244L51.0625 25.3125L62.7078 30.0006L67.1875 42.1875L71.6672 30.0006L83.3125 25.3125L71.6672 20.6244Z" stroke="#887A89" stroke-width="5" stroke-linecap="round" stroke-linejoin="round"/>
</svg>
