<svg width="67" height="70" viewBox="0 0 67 70" fill="none" xmlns="http://www.w3.org/2000/svg">
<path d="M42.2833 24.902L34.9733 5.01407C34.8636 4.71561 34.67 4.45896 34.4181 4.27793C34.1663 4.0969 33.8679 4 33.5623 4C33.2568 4 32.9584 4.0969 32.7065 4.27793C32.4546 4.45896 32.2611 4.71561 32.1514 5.01407L24.8414 24.902C24.7654 25.1086 24.6489 25.2963 24.4993 25.4528C24.3497 25.6093 24.1704 25.7313 23.973 25.8107L4.969 33.4607C4.68381 33.5755 4.43856 33.7781 4.26558 34.0417C4.09259 34.3053 4 34.6175 4 34.9373C4 35.2571 4.09259 35.5693 4.26558 35.8329C4.43856 36.0965 4.68381 36.2991 4.969 36.4139L23.973 44.0639C24.1704 44.1433 24.3497 44.2653 24.4993 44.4218C24.6489 44.5784 24.7654 44.766 24.8414 44.9727L32.1514 64.8606C32.2611 65.159 32.4546 65.4157 32.7065 65.5967C32.9584 65.7777 33.2568 65.8746 33.5623 65.8746C33.8679 65.8746 34.1663 65.7777 34.4181 65.5967C34.67 65.4157 34.8636 65.159 34.9733 64.8606L42.2833 44.9727C42.3592 44.766 42.4757 44.5784 42.6253 44.4218C42.7749 44.2653 42.9542 44.1433 43.1517 44.0639L62.1556 36.4139C62.4408 36.2991 62.6861 36.0965 62.8591 35.8329C63.032 35.5693 63.1246 35.2571 63.1246 34.9373C63.1246 34.6175 63.032 34.3053 62.8591 34.0417C62.6861 33.7781 62.4408 33.5755 62.1556 33.4607L43.1517 25.8107C42.9542 25.7313 42.7749 25.6093 42.6253 25.4528C42.4757 25.2963 42.3592 25.1086 42.2833 24.902Z" stroke="#887A89" stroke-width="7" stroke-linecap="round" stroke-linejoin="round"/>
</svg>
