<svg width="53" height="53" viewBox="0 0 53 53" fill="none" xmlns="http://www.w3.org/2000/svg">
<path d="M40.0424 25.8503L48.9363 6.61845C49.0698 6.32984 49.1144 6.01151 49.0643 5.7054C49.0142 5.39929 48.8717 5.11977 48.6557 4.90371C48.4396 4.68765 48.1601 4.54518 47.854 4.49508C47.5479 4.44499 47.2295 4.48961 46.9409 4.62308L27.7091 13.517C27.5093 13.6094 27.2942 13.6597 27.0778 13.6646C26.8613 13.6696 26.6483 13.629 26.4525 13.5456L7.60524 5.51708C7.32241 5.39659 7.00577 5.3664 6.69707 5.43047C6.38836 5.49454 6.10208 5.64987 5.87597 5.87598C5.64986 6.10209 5.49454 6.38837 5.43046 6.69707C5.36639 7.00578 5.39659 7.32242 5.51707 7.60525L13.5455 26.4525C13.629 26.6483 13.6696 26.8613 13.6646 27.0778C13.6597 27.2942 13.6094 27.5093 13.517 27.7091L4.62308 46.9409C4.48961 47.2295 4.44498 47.5479 4.49508 47.854C4.54518 48.1601 4.68765 48.4396 4.90371 48.6557C5.11977 48.8717 5.39928 49.0142 5.70539 49.0643C6.0115 49.1144 6.32984 49.0698 6.61844 48.9363L25.8503 40.0424C26.0501 39.95 26.2652 39.8997 26.4816 39.8947C26.6981 39.8898 26.9111 39.9304 27.1069 40.0138L45.9541 48.0423C46.237 48.1628 46.5536 48.193 46.8623 48.1289C47.171 48.0648 47.4573 47.9095 47.6834 47.6834C47.9095 47.4573 48.0648 47.171 48.1289 46.8623C48.193 46.5536 48.1628 46.237 48.0423 45.9541L40.0138 27.1069C39.9304 26.9111 39.8898 26.6981 39.8947 26.4816C39.8997 26.2652 39.95 26.0501 40.0424 25.8503Z" stroke="#CAC8CB" stroke-width="7" stroke-linecap="round" stroke-linejoin="round"/>
</svg>
